<?xml version="1.0" encoding="utf-8"?>
<!-- Generator: Adobe Illustrator 27.4.1, SVG Export Plug-In . SVG Version: 6.00 Build 0)  -->
<svg version="1.1" id="Layer_1" xmlns="http://www.w3.org/2000/svg" xmlns:xlink="http://www.w3.org/1999/xlink" x="0px" y="0px"
	 viewBox="0 0 566.9 146.1" style="enable-background:new 0 0 566.9 146.1;" xml:space="preserve">
<style type="text/css">
	.st0{fill:#FFFFFF;}
</style>
<g>
	<g>
		<path class="st0" d="M230.8,53.7c-0.3-0.7-0.4-0.7-1-0.7h-8.2c-0.5,0-0.7,0.1-0.8,0.7l-2.5,15.5c-0.5,3.3-2.6,4.1-5.4,4.1
			c-2.1,0-4.3-0.7-4.3-3.4c0-0.4,0.1-1.6,0.4-2.8l6.6-41.6c0.4-2.8,2-4.4,5-4.4h17.9c8,0,13.5,4.5,13.5,12.8c0,7.4-3.4,15-10.9,18.2
			c-0.4,0.1-0.5,0.3-0.5,0.5c0,0.1,0.1,0.3,0.1,0.3l6,13.6c0.2,0.6,0.7,1.5,0.7,2.6c0,2.6-3.4,4.1-5.8,4.1c-1.6,0-2.8-0.8-3.5-2.6
			L230.8,53.7z M235.2,43.7c4.7,0,6.5-4.4,6.5-8c0-3.3-2.1-5.3-5.1-5.3h-11.5c-0.5,0-0.7,0.1-0.8,0.7L222.5,43
			c-0.1,0.5,0.1,0.7,0.6,0.7H235.2z"/>
		<path class="st0" d="M280.5,20.8c10.2,0,16.3,4.4,16.3,15.4c0,3.1-0.4,6.7-1,10.8c-2.5,15.9-5.5,26.2-23.6,26.2
			c-10,0-16.3-4.2-16.3-15.3c0-3.1,0.4-6.8,1-10.9C259.4,31.8,262.7,20.8,280.5,20.8z M286.9,37.7c0-4.9-2.8-7.6-7.7-7.6
			c-10.1,0-10.7,10-12.1,17c-0.7,3.8-1.1,6.9-1.1,9.5c0,5.3,2.2,7.5,7.8,7.5c9.3,0,10.6-7.2,12.1-17
			C286.4,43.3,286.9,40.2,286.9,37.7z"/>
		<path class="st0" d="M341.7,44.4c0,0,0.1-0.6-0.3-0.6c-0.3,0-0.5,0.4-0.5,0.4l-7.2,10.7c-2.9,4.2-4.6,6.6-8.1,6.6s-4.5-2.4-6-6.6
			l-3.8-10.7c0,0-0.2-0.4-0.5-0.4c-0.4,0-0.4,0.6-0.4,0.6l-3.9,24.8c-0.5,3.3-2.6,4.1-5.4,4.1c-2.1,0-4.3-0.7-4.3-3.4
			c0-0.4,0.1-1.6,0.4-2.8l6.6-40.8c0.6-3.9,2.5-5.5,6.1-5.5c2.6,0,4.7,1,5.9,4.8l6.8,21.3c0.2,0.5,0.1,0.9,0.4,0.9
			c0.3,0,0.4-0.4,0.7-0.9l14.6-21.3c2.8-4.1,4.5-4.8,7.1-4.8c3.1,0,4.8,1.4,4.8,4.1c0,0.4-0.1,0.9-0.1,1.4l-6.9,42.8
			c-0.5,3.3-2.6,4.1-5.4,4.1c-2.1,0-4.3-0.7-4.3-3.4c0-0.4,0.1-1.6,0.4-2.8L341.7,44.4z"/>
		<path class="st0" d="M363.9,70.5c-1.1,2.2-2.3,2.8-4.2,2.8c-2.7,0-5.1-1.4-5.1-3.9c0-0.7,0.2-1.5,0.7-2.4l20.4-39.4
			c3-5.7,4.6-6.8,8.2-6.8c3.9,0,5.2,1.6,6.3,6.8l8.1,39.8c0.1,0.8,0.2,1.3,0.2,1.9c0,2.9-3.2,3.9-5.8,3.9c-1.5,0-2.9-0.7-3.4-2.8
			l-1.4-6.8c-0.1-0.7-0.4-1-1-1h-18.1c-0.6,0-0.9,0.4-1.3,1L363.9,70.5z M385,53.2c0.4,0,0.7-0.2,0.7-0.5c0-0.1,0-0.4-0.1-1
			l-2.6-16.5c-0.1-1-0.1-2.4-0.7-2.4c-0.5,0-0.8,1.3-1.3,2.4l-8,16.5c-0.3,0.6-0.4,0.9-0.4,1c0,0.3,0.1,0.4,0.6,0.4H385z"/>
		<path class="st0" d="M440.6,24.9c0.5-3.3,2.6-4.1,5.4-4.1c2.1,0,4.3,0.7,4.3,3.4c0,0.4-0.1,1.6-0.4,2.8l-6.5,40.5
			c-0.7,4.4-3,5.8-5.9,5.8c-3.2,0-4.3-1.3-6.2-5.5l-11.2-26.1c-0.1-0.4-0.4-0.8-0.7-0.8c-0.4,0-0.4,0.6-0.4,0.8l-4.4,27.6
			c-0.5,3.3-2.6,4.1-5.4,4.1c-2.1,0-4.3-0.7-4.3-3.4c0-0.4,0.1-1.6,0.4-2.8l6.5-40.5c0.7-4.7,3-5.8,5.9-5.8c3.1,0,4.3,1.3,6.2,5.5
			L435,52.5c0.1,0.4,0.4,0.7,0.7,0.7s0.4-0.6,0.4-0.7L440.6,24.9z"/>
		<path class="st0" d="M464,69.2c-0.5,3.3-2.6,4.1-5.4,4.1c-2.1,0-4.3-0.7-4.3-3.4c0-0.4,0.1-1.6,0.4-2.8l6.8-42.2
			c0.5-3.3,2.6-4.1,5.4-4.1c2.1,0,4.3,0.7,4.3,3.4c0,0.4-0.1,1.6-0.4,2.8L464,69.2z"/>
		<path class="st0" d="M480.5,70.5c-1.1,2.2-2.3,2.8-4.2,2.8c-2.7,0-5.1-1.4-5.1-3.9c0-0.7,0.2-1.5,0.7-2.4l20.4-39.4
			c3-5.7,4.6-6.8,8.2-6.8c3.9,0,5.2,1.6,6.3,6.8l8.1,39.8c0.1,0.8,0.2,1.3,0.2,1.9c0,2.9-3.2,3.9-5.8,3.9c-1.5,0-2.9-0.7-3.4-2.8
			l-1.4-6.8c-0.1-0.7-0.4-1-1-1h-18.1c-0.6,0-0.9,0.4-1.3,1L480.5,70.5z M501.6,53.2c0.4,0,0.7-0.2,0.7-0.5c0-0.1,0-0.4-0.1-1
			l-2.6-16.5c-0.1-1-0.1-2.4-0.7-2.4c-0.5,0-0.8,1.3-1.3,2.4l-8,16.5c-0.3,0.6-0.4,0.9-0.4,1c0,0.3,0.1,0.4,0.6,0.4H501.6z"/>
		<path class="st0" d="M557.2,24.9c0.5-3.3,2.6-4.1,5.4-4.1c2.1,0,4.3,0.7,4.3,3.4c0,0.4-0.1,1.6-0.4,2.8l-6.5,40.5
			c-0.7,4.4-3,5.8-5.9,5.8c-3.2,0-4.3-1.3-6.2-5.5l-11.2-26.1c-0.1-0.4-0.4-0.8-0.7-0.8s-0.4,0.6-0.4,0.8l-4.4,27.6
			c-0.5,3.3-2.6,4.1-5.4,4.1c-2.1,0-4.3-0.7-4.3-3.4c0-0.4,0.1-1.6,0.4-2.8l6.5-40.5c0.7-4.7,3-5.8,5.9-5.8c3.1,0,4.3,1.3,6.2,5.5
			l11.2,26.1c0.1,0.4,0.4,0.7,0.7,0.7s0.4-0.6,0.4-0.7L557.2,24.9z"/>
	</g>
	<path class="st0" d="M201.7,111.6c3.1-20,7.4-34.5,31.1-34.5c5.4,0,12.1,1.4,16.1,5c1.4,1.3,2.5,2.5,2.5,4.4c0,3.4-3.5,7.4-7.4,7.4
		c-1.4,0-2.3-0.4-3-1c-3.7-3-6.1-3.7-10.1-3.7c-13.3,0-14.1,13.1-15.9,22.3c-1,5-1.5,9.1-1.5,12.4c0,7,2.9,9.9,10.3,9.9
		c7.6,0,12.6-4.5,13.8-11.8l0.6-3.7c0.1-0.7-0.1-0.9-0.7-0.9h-5.7c-3.8,0-5.2-2.5-5.2-5.4c0-3.6,2.4-6.9,6.9-6.9h14.2
		c2.8,0,4.9,1.5,4.3,5.2l-1.9,11.8c-2.5,15.5-11.4,23.8-28.3,23.8c-13.1,0-21.5-5.5-21.5-20.1C200.3,121.9,200.8,117.1,201.7,111.6z
		"/>
	<path class="st0" d="M264.4,142.4c-1.5,2.8-3,3.6-5.6,3.6c-3.5,0-6.8-1.9-6.8-5.1c0-1,0.3-2,0.9-3.1L279.7,86
		c3.9-7.5,6.1-8.9,10.8-8.9c5.1,0,6.9,2.1,8.2,8.9l10.7,52.3c0.2,1.1,0.3,1.8,0.3,2.5c0,3.8-4.2,5.2-7.6,5.2c-2,0-3.8-1-4.4-3.7
		l-1.9-8.9c-0.2-0.9-0.5-1.4-1.3-1.4h-23.8c-0.8,0-1.2,0.5-1.7,1.4L264.4,142.4z M292.1,119.7c0.6,0,1-0.3,1-0.7
		c0-0.2,0-0.5-0.1-1.3l-3.4-21.7c-0.2-1.4-0.2-3.1-0.9-3.1c-0.7,0-1.1,1.8-1.8,3.1l-10.5,21.7c-0.4,0.8-0.5,1.2-0.5,1.4
		c0,0.4,0.2,0.6,0.8,0.6H292.1z"/>
	<path class="st0" d="M347.5,120.3c-0.4-0.9-0.6-0.9-1.4-0.9h-10.8c-0.7,0-1,0.2-1.1,0.9l-3.2,20.4c-0.7,4.3-3.4,5.4-7.2,5.4
		c-2.7,0-5.7-1-5.7-4.4c0-0.6,0.2-2.1,0.5-3.6l8.7-54.8c0.6-3.7,2.6-5.8,6.6-5.8h23.5c10.6,0,17.7,6,17.7,16.9
		c0,9.8-4.4,19.8-14.4,23.9c-0.5,0.2-0.7,0.4-0.7,0.7c0,0.2,0.1,0.4,0.1,0.4l7.8,17.9c0.3,0.8,1,2,1,3.4c0,3.4-4.5,5.4-7.6,5.4
		c-2.2,0-3.6-1.1-4.6-3.4L347.5,120.3z M353.3,107.2c6.2,0,8.5-5.8,8.5-10.5c0-4.3-2.7-7-6.7-7H340c-0.7,0-1,0.2-1.1,0.9l-2.5,15.7
		c-0.1,0.7,0.1,0.9,0.8,0.9H353.3z"/>
	<path class="st0" d="M415.5,77.8c16,0,21.3,7.2,21.3,20.5c0,4-0.5,8.5-1.3,13.6c-2.8,18-5.4,34.1-30.9,34.1h-19.2
		c-3.6,0-5.2-2.1-4.6-5.8l8.9-56.7c0.6-3.7,2.2-5.8,6.6-5.8H415.5z M406.6,133.8c12.6,0,14-10.7,15.7-21.9c0.7-4.7,1.4-8.6,1.4-12.4
		c0-4.8-2-9.5-10.1-9.5h-11.2c-0.7,0-0.9,0.2-1.1,0.9l-6.6,42c-0.1,0.7,0,0.9,0.7,0.9H406.6z"/>
	<path class="st0" d="M490.3,77.8c3.9,0,5.3,2.5,5.3,5.4c0,3.7-2.4,7-7.5,7h-23.9c-0.7,0-1,0.2-1.1,0.9l-2,12.7
		c-0.1,0.7,0,0.9,0.7,0.9h20.5c3.9,0,5.3,2.5,5.3,5.4c0,3.7-2.4,7-7.5,7h-20.2c-0.7,0-0.9,0.2-1,0.9l-2.4,14.9
		c-0.1,0.7,0,0.9,0.7,0.9h25.2c3.9,0,5.3,2.5,5.3,5.4c0,3.7-2.4,7-7.5,7h-32.7c-3.7,0-5.4-2.1-4.8-5.8l8.9-56.7
		c0.6-3.7,2.6-5.8,6.6-5.8H490.3z"/>
	<path class="st0" d="M545.5,82.4c0.7-4.3,3.4-5.4,7.2-5.4c2.7,0,5.7,1,5.7,4.4c0,0.6-0.2,2.1-0.5,3.6l-8.5,53.3
		c-0.9,5.8-3.9,7.6-7.7,7.6c-4.2,0-5.7-1.7-8.1-7.3l-14.8-34.4c-0.2-0.6-0.5-1.1-1-1.1s-0.6,0.8-0.6,1.1l-5.8,36.3
		c-0.7,4.3-3.4,5.4-7.2,5.4c-2.7,0-5.7-1-5.7-4.4c0-0.6,0.2-2.1,0.5-3.6l8.5-53.3c1-6.2,3.9-7.6,7.7-7.6c4,0,5.7,1.7,8.1,7.3
		l14.8,34.4c0.2,0.5,0.5,1,1,1s0.6-0.8,0.6-1L545.5,82.4z"/>
	<path class="st0" d="M48,33.8c1.1-0.7,1.6-1.9,1.4-3.2C42.9,1,12.1,11.7,5.8,5.1C11,43.2,40.5,38.3,48,33.8z M8.2,8.8
		c4.9,8.4,23.2,18.5,37.9,22.4C32.1,30.6,12.2,19.9,8.2,8.8z"/>
	<path class="st0" d="M60.2,0c0.1,5.6-17.8,14.2-7.7,29.8c0.4,0.7,1.2,1,1.9,0.8C59.5,29.3,74.3,18.7,60.2,0z M54,28.6
		c4.6-8,8.1-20.2,6.7-26C63.8,9.1,59.8,22.3,54,28.6z"/>
	<path class="st0" d="M8.6,57.2c3.8-4,22.4,2.5,26.3-15.4c0.2-0.7-0.2-1.5-0.8-1.9C29.5,37.1,11.7,34.2,8.6,57.2z M32.9,41.5
		C24,43.9,13,49.9,10,55C12.4,48.3,24.4,41.8,32.9,41.5z"/>
	<g>
		<path class="st0" d="M62.2,94.2c-0.5-1.1-0.7-1.1-1.7-1.1h-13c-0.8,0-1.2,0.2-1.3,1.1l-3.9,24.5c-0.8,5.2-4.1,6.5-8.6,6.5
			c-3.3,0-6.8-1.2-6.8-5.3c0-0.7,0.2-2.5,0.6-4.4l10.5-65.9c0.7-4.5,3.2-7,7.9-7h28.3c12.7,0,21.3,7.2,21.3,20.3
			c0,11.8-5.3,23.8-17.3,28.8c-0.6,0.2-0.8,0.5-0.8,0.8c0,0.2,0.1,0.5,0.1,0.5l9.4,21.6c0.4,0.9,1.2,2.4,1.2,4.1
			c0,4.1-5.4,6.5-9.2,6.5c-2.6,0-4.4-1.3-5.5-4.1L62.2,94.2z M69.2,78.4c7.4,0,10.3-7,10.3-12.6c0-5.2-3.3-8.4-8-8.4H53.3
			c-0.8,0-1.2,0.2-1.3,1.1L49,77.4c-0.1,0.8,0.1,1.1,0.9,1.1H69.2z"/>
	</g>
	<g>
		<g>
			<path class="st0" d="M103.3,83.7c3.8-24.1,9-41.5,37.4-41.5c6.5,0,14.5,1.7,19.3,6c1.7,1.5,2.9,2.9,2.9,5.3c0,4.1-4.2,9-8.8,9
				c-1.7,0-2.7-0.5-3.7-1.2c-4.5-3.7-7.3-4.5-12.1-4.5c-16,0-17,15.8-19.1,26.9c-1.2,6-1.8,11-1.8,15c0,8.4,3.5,11.9,12.4,11.9
				c9.2,0,15.2-5.4,16.6-14.2l0.7-4.5c0.1-0.8-0.1-1.1-0.8-1.1h-6.8c-4.6,0-6.3-3.1-6.3-6.5c0-4.4,2.8-8.3,8.3-8.3h17.1
				c3.4,0,5.9,1.8,5.2,6.2l-2.2,14.2c-2.9,18.6-13.7,28.7-34.1,28.7c-15.8,0-25.8-6.6-25.8-24.2C101.6,96.1,102.2,90.3,103.3,83.7z"
				/>
		</g>
	</g>
	<path class="st0" d="M154.1,145.9H32.9c-9.6,0-18.7-4.2-25-11.5c-6.3-7.3-9-16.9-7.5-26.4l6.5-42c0.6-3.9,4.2-6.6,8.1-6
		c3.9,0.6,6.6,4.2,6,8.1l-6.5,42c-0.8,5.4,0.7,10.8,4.3,15s8.7,6.5,14.1,6.5h121.2c9.3,0,17-6.6,18.4-15.8l9.1-59.1
		c0.8-5.4-0.7-10.8-4.3-15c-3.5-4.1-8.7-6.5-14.1-6.5H75c-3.9,0-7.1-3.2-7.1-7.1S71,21,75,21h88.2c9.6,0,18.7,4.2,25,11.5
		c6.3,7.3,9,16.9,7.5,26.4l-9.1,59.1C184.1,134.1,170.4,145.9,154.1,145.9z"/>
</g>
</svg>
